<svg xmlns="http://www.w3.org/2000/svg" viewBox="0 0 68.693 68.693"><title>Asset 2B</title><g id="Layer_2" data-name="Layer 2"><g id="Layer_1-2" data-name="Layer 1"><path d="M44.267,13.087c-.008.135-.022.27-.022.4,0,2.184-.007,4.368.006,6.552,0,.3-.089.38-.384.377-1.188-.012-2.376-.011-3.564.012a7.329,7.329,0,0,0-1.21.145,1.617,1.617,0,0,0-1.327,1.593c-.058,1.537-.051,3.077-.079,4.615,0,.28.182.233.345.233q2.9,0,5.805,0h.439l-.771,7.32H37.7c0,.172,0,.315,0,.458q0,10.2-.008,20.4c0,.136-.007.271-.011.407H29.731c0-.634.007-1.268.007-1.9q0-9.407,0-18.814c0-.167,0-.334,0-.541h-5.3c-.008-.149-.02-.258-.02-.368,0-2.2.005-4.392-.007-6.588,0-.3.089-.381.385-.378,1.517.013,3.034,0,4.551.012.324,0,.392-.1.394-.407.009-1.969,0-3.939.07-5.907a9.673,9.673,0,0,1,1.015-4.119A5.57,5.57,0,0,1,34.2,13.729c.835-.265,1.717-.379,2.578-.561.12-.025.24-.054.36-.081Z" fill="#46876e"/><path d="M34.347,68.693A34.347,34.347,0,1,1,68.693,34.347,34.386,34.386,0,0,1,34.347,68.693ZM34.347,3A31.347,31.347,0,1,0,65.693,34.347,31.383,31.383,0,0,0,34.347,3Z" fill="#46876e"/></g></g></svg>