<svg xmlns="http://www.w3.org/2000/svg" viewBox="0 0 68.693 68.693"><title>Asset 3B</title><g id="Layer_2" data-name="Layer 2"><g id="Layer_1-2" data-name="Layer 1"><path d="M34.371,15.473c3.27,0,6.543-.1,9.808.023a10.082,10.082,0,0,1,9.5,10.028q0,8.83,0,17.661A10.134,10.134,0,0,1,43.637,53.253q-9.262.013-18.524,0A10.124,10.124,0,0,1,15.026,43.23q-.037-8.869,0-17.739A10.061,10.061,0,0,1,24.563,15.5C27.828,15.371,31.1,15.473,34.371,15.473Zm.019,3.387c-2.877,0-5.755,0-8.632,0a7.026,7.026,0,0,0-7.247,7.084q-.078,8.435,0,16.872a7.007,7.007,0,0,0,7.134,7.041q8.711.049,17.422,0a7.027,7.027,0,0,0,7.125-7.2q.007-8.279,0-16.558a7.046,7.046,0,0,0-7.249-7.235Q38.667,18.854,34.39,18.86Z" fill="#46876e"/><path d="M34.3,44.074a9.725,9.725,0,1,1,9.779-9.665A9.7,9.7,0,0,1,34.3,44.074Zm.046-3.492a6.233,6.233,0,1,0,0-12.467,6.233,6.233,0,1,0,0,12.467Z" fill="#46876e"/><path d="M42.391,24.091a2.2,2.2,0,1,1,2.116,2.247A2.163,2.163,0,0,1,42.391,24.091Z" fill="#46876e"/><path d="M34.347,68.693A34.347,34.347,0,1,1,68.693,34.347,34.386,34.386,0,0,1,34.347,68.693ZM34.347,3A31.347,31.347,0,1,0,65.693,34.347,31.383,31.383,0,0,0,34.347,3Z" fill="#46876e"/></g></g></svg>