<svg xmlns="http://www.w3.org/2000/svg" viewBox="0 0 68.693 68.693"><title>Asset 1B</title><g id="Layer_2" data-name="Layer 2"><g id="Layer_1-2" data-name="Layer 1"><path d="M34.347,68.693A34.347,34.347,0,1,1,68.693,34.347,34.386,34.386,0,0,1,34.347,68.693ZM34.347,3A31.347,31.347,0,1,0,65.693,34.347,31.383,31.383,0,0,0,34.347,3Z" fill="#46876e"/><path d="M49.018,17.383H19.675a5.967,5.967,0,0,0-5.96,5.96V45.351a5.967,5.967,0,0,0,5.96,5.96H49.018a5.967,5.967,0,0,0,5.961-5.96V23.344A5.968,5.968,0,0,0,49.018,17.383ZM18.3,26.279,32.915,37.971a2.352,2.352,0,0,0,2.865,0L50.394,26.279V45.352a1.377,1.377,0,0,1-1.376,1.375H19.675A1.377,1.377,0,0,1,18.3,45.352V26.279Zm16.047,6.966L20.25,21.968H48.443Z" fill="#46876e"/></g></g></svg>