<?xml version="1.0" encoding="utf-8"?>
<!-- Generator: Adobe Illustrator 21.0.0, SVG Export Plug-In . SVG Version: 6.00 Build 0)  -->
<svg version="1.1" id="Layer_1" xmlns="http://www.w3.org/2000/svg" xmlns:xlink="http://www.w3.org/1999/xlink" x="0px" y="0px"
	 viewBox="0 0 141.7 141.7" style="enable-background:new 0 0 141.7 141.7;" xml:space="preserve">
<g>
	<path d="M71.7,39.4c-0.5-0.2-1.1-0.2-1.6,0c-9.6,3-20.9,10.8-20.9,30.8c0,14.1,7.2,24.4,20.7,30c0.3,0.1,0.7,0.2,1,0.2
		s0.7-0.1,1-0.2c13.6-5.5,20.7-15.9,20.7-30C92.6,50.2,81.2,42.4,71.7,39.4z M77,72.2h-3.5v2.9c0,1.5-1.2,2.7-2.7,2.7
		c-1.5,0-2.7-1.2-2.7-2.7v-2.9h-3.5c-1.5,0-2.7-1.2-2.7-2.7c0-1.5,1.2-2.7,2.7-2.7h3.5v-4.1c0-1.5,1.2-2.7,2.7-2.7
		c1.5,0,2.7,1.2,2.7,2.7v4.1H77c1.5,0,2.7,1.2,2.7,2.7C79.7,71,78.5,72.2,77,72.2z"/>
	<path d="M93.3,104.3c-8.6,0-16.7-1.4-23.4-4.2c-1-0.4-1.7-1.4-1.7-2.5c0-1.1,0.7-2.1,1.7-2.5c11.6-4.7,17.4-13.1,17.4-25
		c0-13.5-5.8-22.1-17.2-25.7c-1.1-0.4-1.9-1.4-1.9-2.5s0.7-2.2,1.9-2.5c5.4-1.7,10.4-2,13-2c24,0,40.3,9.4,43.8,25.3
		c2.2,10.3-1.7,21-9.3,27.2c1.4,0.3,2.8,0.4,4.2,0.4l0,0c0.6,0,1.2,0,1.8-0.1c1-0.1,2,0.5,2.5,1.4c0.5,0.9,0.4,2.1-0.2,2.9
		C121.3,100.3,108,104.3,93.3,104.3z M77.8,97.2c4.7,1.2,10,1.8,15.5,1.8c9.3,0,17.4-1.7,22.7-4c-2-0.4-3.9-1.1-5.8-2
		c-0.9-0.4-1.5-1.4-1.5-2.4s0.6-2,1.6-2.4c8.5-3.8,13.5-14.5,11.3-24.4c-1.4-6.3-7.9-21.1-38.6-21.1c-0.9,0-2.2,0-3.6,0.2
		c7.1,4.5,13.3,12.6,13.3,27.3C92.6,82,87.5,91.3,77.8,97.2z"/>
	<path d="M48.4,104.3c-3.1,0-6.1-0.2-9.2-0.6C28,102.4,19.4,99,15.9,94.5c-0.6-0.8-0.7-2-0.2-2.9c0.5-0.9,1.5-1.5,2.5-1.4
		c2.1,0.2,4.1,0,6-0.4c-7.4-6-11.3-16.5-9.4-26.5c1.4-7.2,7.9-24.2,39.1-25.8c1.5-0.1,2.7,1,2.8,2.5c0.1,1.5-1,2.7-2.5,2.8
		c-27.4,1.4-33,15.5-34.1,21.5c-1.8,9.8,3.1,20,11.4,23.8c0.9,0.4,1.5,1.4,1.6,2.4c0,1-0.6,2-1.5,2.4c-1.9,0.9-3.8,1.6-5.8,2
		c9.8,4.2,29.1,6.4,44.1,0.3c1.4-0.6,2.9,0.1,3.5,1.5c0.6,1.4-0.1,2.9-1.5,3.5C65.2,102.9,56.9,104.3,48.4,104.3z"/>
</g>
</svg>
