<?xml version="1.0" encoding="utf-8"?>
<!-- Generator: Adobe Illustrator 21.0.0, SVG Export Plug-In . SVG Version: 6.00 Build 0)  -->
<svg version="1.1" id="Layer_1" xmlns="http://www.w3.org/2000/svg" xmlns:xlink="http://www.w3.org/1999/xlink" x="0px" y="0px"
	 viewBox="0 0 141.7 141.7" style="enable-background:new 0 0 141.7 141.7;" xml:space="preserve">
<style type="text/css">
	.st0{fill:#231F20;stroke:#231F20;stroke-miterlimit:10;}
</style>
<path class="st0" d="M112.2,70.1c0-3.1-2.6-4.9-4.1-5.8c-2.7-1.4-6.7-1.5-9.9-1.1C91.8,64,85.6,68.2,80.3,69l-1.1-15.4
	c12-0.2,21.5-0.4,22.5-11c0.4-4.2-0.8-9.1-1.9-13.7c-1.5-6.4-5.5-14.6-12.4-14.6c-6.9,0-26.2,0-33.1,0S43.4,22.5,41.9,29
	c-1.1,4.6-2.3,9.5-1.9,13.7c1,10.6,10.6,10.7,22.5,11L61.4,69c-5.2-0.9-11.5-5-17.8-5.8c-3.2-0.4-7.2-0.3-9.9,1.1
	c-1.6,0.8-4.1,2.7-4.1,5.8c0,1.4,0.8,2.1,1.6,3c3,3.3,9,4.8,14.3,5.8c-3,3.3-4.1,9.4-5.2,15.5c-1.4,7.2-5.1,29.3-5.8,32.9h3.1
	l4.3-24l2.5,0c0,0,1.1-6.9,1.7-10.7c0.5-3.8,1.5-8,3.2-10.4c2.2-3.2,11.9-2.4,16.9-2.2c2.8,0.2,6.9,0.1,9.6,0
	c4.9-0.3,14.6-1,16.9,2.2c1.7,2.4,2.6,6.6,3.2,10.4c0.6,3.8,1.7,10.7,1.7,10.7l2.5,0l4.3,24h3.1c-0.7-3.6-4.4-25.7-5.8-32.9
	c-1.1-6.1-2.2-12.2-5.2-15.5c5.3-0.9,11.3-2.5,14.3-5.8C111.3,72.3,112.1,71.5,112.2,70.1z"/>
</svg>
