<?xml version="1.0" encoding="utf-8"?>
<!-- Generator: Adobe Illustrator 21.0.0, SVG Export Plug-In . SVG Version: 6.00 Build 0)  -->
<svg version="1.1" id="Layer_1" xmlns="http://www.w3.org/2000/svg" xmlns:xlink="http://www.w3.org/1999/xlink" x="0px" y="0px"
	 viewBox="0 0 141.3 141.6" style="enable-background:new 0 0 141.3 141.6;" xml:space="preserve">
<path d="M28.7,107.1c-0.6,0.6-0.6,1.4,0,2l0.9,0.8l-3.9,3.9c-0.6,0.6-0.6,1.5,0,2c0.6,0.6,1.5,0.6,2,0l3.9-3.9l0.8,0.8
	c0.6,0.6,1.5,0.6,2,0l5-5l2.8,2.8l70.9-70.9c1.1-1.1,1.1-2.9,0-4l2-2c1.1-1.1,1.1-2.9,0-4c-2.1-2.1-1.3-1.3-3.3-3.3
	c-1.1-1.1-2.9-1.1-4,0l-2,2c-1.1-1.1-2.9-1.1-4,0L30.9,99.2l2.8,2.8L28.7,107.1L28.7,107.1z M102.2,37.3L78.3,61.2
	c-0.6,0.6-0.6,1.5,0,2c0.6,0.6,1.5,0.6,2,0c8-8,15.9-15.9,23.9-23.9l2.7,2.7l-64.6,64.6L35,99.3l64.6-64.6L102.2,37.3L102.2,37.3z
	 M101.5,32.6l2.2-2.2l7.3,7.3l-2.2,2.2L101.5,32.6L101.5,32.6z M107.8,30.4l2-2c1.1,1.1,2.2,2.2,3.3,3.3l-2,2L107.8,30.4L107.8,30.4
	z M37.4,105.7l-4,4l-1.7-1.7l4-4L37.4,105.7z"/>
</svg>
