<svg xmlns="http://www.w3.org/2000/svg" viewBox="0 0 141.732 50.813"><title>Asset 4</title><g id="Layer_2" data-name="Layer 2"><g id="Capa_1" data-name="Capa 1"><path d="M5.508,17.61a5.316,5.316,0,0,1-2.824-.77A5.245,5.245,0,0,1,.721,14.7a6.687,6.687,0,0,1-.7-3.084v-.487A7.206,7.206,0,0,1,.7,7.945,5.448,5.448,0,0,1,2.611,5.721a4.7,4.7,0,0,1,2.648-.809A4.422,4.422,0,0,1,8.8,6.434,6.175,6.175,0,0,1,10.1,10.593v.758H1.366v.26A5.128,5.128,0,0,0,2.56,15.081a3.8,3.8,0,0,0,3,1.386,4.413,4.413,0,0,0,1.918-.4A4.255,4.255,0,0,0,8.994,14.8l.849.645A4.941,4.941,0,0,1,5.508,17.61ZM5.482,6.072A3.591,3.591,0,0,0,2.714,7.155a5.155,5.155,0,0,0-1.3,3.042H8.756V10.05A4.494,4.494,0,0,0,7.749,7.175,3.085,3.085,0,0,0,5.482,6.072Z" fill="#EF463B"/><path d="M20.074,14.272a1.93,1.93,0,0,0-.809-1.618,6.241,6.241,0,0,0-2.439-.956A11,11,0,0,1,14.3,10.9a3.37,3.37,0,0,1-1.335-1.092,2.725,2.725,0,0,1-.436-1.562,2.914,2.914,0,0,1,1.211-2.394,4.891,4.891,0,0,1,3.1-.945,5.035,5.035,0,0,1,3.288,1.013,3.251,3.251,0,0,1,1.239,2.643H20.006a2.193,2.193,0,0,0-.9-1.788,3.54,3.54,0,0,0-2.269-.713,3.542,3.542,0,0,0-2.145.594,1.834,1.834,0,0,0-.809,1.545,1.67,1.67,0,0,0,.673,1.42,7.123,7.123,0,0,0,2.456.922,11.543,11.543,0,0,1,2.671.894A3.459,3.459,0,0,1,21,12.585a3.151,3.151,0,0,1,.41,2.046,2.673,2.673,0,0,1-.705,1.586,4.975,4.975,0,0,1-3.79,1.393,5.485,5.485,0,0,1-3.469-1.036,3.188,3.188,0,0,1-1.33-2.62h1.358a2.355,2.355,0,0,0,1,1.85,4.094,4.094,0,0,0,2.439.662,3.848,3.848,0,0,0,2.286-.622A1.868,1.868,0,0,0,20.074,14.272Z" fill="#EF463B"/><path d="M26.582,2V5.138h2.535V6.247H26.582v8.17a2.556,2.556,0,0,0,.368,1.518,1.424,1.424,0,0,0,1.228.5,8.426,8.426,0,0,0,1.1-.113l.057,1.1a4.447,4.447,0,0,1-1.449.191,2.415,2.415,0,0,1-2.026-.809,3.809,3.809,0,0,1-.634-2.382V6.247H22.971V5.138h2.252V2Z" fill="#EF463B"/><path d="M39.8,15.834a4.4,4.4,0,0,1-3.9,1.777,3.789,3.789,0,0,1-2.977-1.137,4.982,4.982,0,0,1-1.041-3.367V5.138h1.347v7.8q0,3.5,2.829,3.5Q39,16.433,39.778,14V5.138h1.358V17.384H39.823Z" fill="#EF463B"/><path d="M44.113,11.148A7.381,7.381,0,0,1,45.386,6.6a4.1,4.1,0,0,1,3.458-1.692,4.258,4.258,0,0,1,3.78,1.958V0h1.347V17.384H52.7l-.057-1.63a4.374,4.374,0,0,1-3.825,1.856,4.083,4.083,0,0,1-3.412-1.7,7.419,7.419,0,0,1-1.3-4.6Zm1.369.238a6.386,6.386,0,0,0,.939,3.7,3.038,3.038,0,0,0,2.648,1.352,3.645,3.645,0,0,0,3.554-2.207V8.477a3.618,3.618,0,0,0-3.531-2.388,3.075,3.075,0,0,0-2.66,1.341A6.824,6.824,0,0,0,45.482,11.386Z" fill="#EF463B"/><path d="M57.456,1.6a.909.909,0,0,1,.249-.647A.891.891,0,0,1,58.385.69a.909.909,0,0,1,.685.264.9.9,0,0,1,.255.647.879.879,0,0,1-.255.641.917.917,0,0,1-.685.258.9.9,0,0,1-.679-.258A.89.89,0,0,1,57.456,1.6Zm1.6,15.783H57.694V5.138h1.358Z" fill="#EF463B"/><path d="M61.984,11.08a7.206,7.206,0,0,1,.685-3.18,5.144,5.144,0,0,1,4.77-2.988A5.037,5.037,0,0,1,71.4,6.627a6.607,6.607,0,0,1,1.517,4.544v.283a7.269,7.269,0,0,1-.685,3.2,5.113,5.113,0,0,1-1.93,2.19,5.291,5.291,0,0,1-2.841.77A5.042,5.042,0,0,1,63.506,15.9a6.592,6.592,0,0,1-1.522-4.544Zm1.358.373a5.557,5.557,0,0,0,1.137,3.6,3.848,3.848,0,0,0,5.953,0A5.74,5.74,0,0,0,71.57,11.34v-.26a6.229,6.229,0,0,0-.521-2.569,4.183,4.183,0,0,0-1.46-1.805,3.7,3.7,0,0,0-2-.637A3.828,3.828,0,0,0,64.6,7.354,5.666,5.666,0,0,0,63.342,11.2Z" fill="#EF463B"/><path d="M7.157,23.167,7.394,26.2a10.266,10.266,0,0,1,8.213-3.537q5.519,0,7.579,4.139a9.976,9.976,0,0,1,8.583-4.139q4.647,0,6.919,2.571t2.271,7.739V50.311H33.3V32.961a5,5,0,0,0-.951-3.382A4.339,4.339,0,0,0,29,28.511a4.761,4.761,0,0,0-4.753,3.117l.026,18.684H16.637V32.986a4.948,4.948,0,0,0-.977-3.42,4.387,4.387,0,0,0-3.327-1.055,4.991,4.991,0,0,0-4.7,2.564V50.311H0V23.167Z" fill="#EF463B"/><path d="M63.934,47.552a9.8,9.8,0,0,1-7.817,3.261q-4.6,0-7.011-2.509t-2.469-7.351V23.167h7.632V40.723q0,4.244,4.067,4.244,3.882,0,5.334-2.562V23.167h7.658V50.311H64.145Z" fill="#EF463B"/><path d="M92.56,42.811a2.327,2.327,0,0,0-1.386-2.095,16.307,16.307,0,0,0-4.45-1.368Q76.53,37.315,76.531,31.119a7.334,7.334,0,0,1,3.156-6.033,13.189,13.189,0,0,1,8.253-2.421,14.214,14.214,0,0,1,8.7,2.433A7.542,7.542,0,0,1,99.9,31.42H92.27a3.418,3.418,0,0,0-1.056-2.571,4.622,4.622,0,0,0-3.3-1.017,4.737,4.737,0,0,0-2.984.828,2.565,2.565,0,0,0-1.056,2.108,2.215,2.215,0,0,0,1.2,1.944,12.8,12.8,0,0,0,4.054,1.28,34.467,34.467,0,0,1,4.806,1.217q6.047,2.107,6.047,7.3a6.99,6.99,0,0,1-3.354,6.009,15.027,15.027,0,0,1-8.662,2.3A15.8,15.8,0,0,1,81.588,49.6a10.606,10.606,0,0,1-4.371-3.337,7.494,7.494,0,0,1-1.584-4.578h7.236a3.716,3.716,0,0,0,1.505,2.96,6.188,6.188,0,0,0,3.75,1.029,5.748,5.748,0,0,0,3.314-.79A2.425,2.425,0,0,0,92.56,42.811Z" fill="#EF463B"/><path d="M120.368,42.811a2.327,2.327,0,0,0-1.386-2.095,16.307,16.307,0,0,0-4.45-1.368q-10.194-2.033-10.194-8.229a7.334,7.334,0,0,1,3.156-6.033,13.189,13.189,0,0,1,8.253-2.421,14.214,14.214,0,0,1,8.7,2.433,7.542,7.542,0,0,1,3.261,6.322h-7.632a3.418,3.418,0,0,0-1.056-2.571,4.622,4.622,0,0,0-3.3-1.017,4.737,4.737,0,0,0-2.984.828,2.565,2.565,0,0,0-1.056,2.108,2.215,2.215,0,0,0,1.2,1.944,12.8,12.8,0,0,0,4.054,1.28,34.467,34.467,0,0,1,4.806,1.217q6.047,2.107,6.047,7.3a6.99,6.99,0,0,1-3.354,6.009,15.027,15.027,0,0,1-8.662,2.3A15.8,15.8,0,0,1,109.4,49.6a10.606,10.606,0,0,1-4.371-3.337,7.494,7.494,0,0,1-1.584-4.578h7.236a3.716,3.716,0,0,0,1.505,2.96,6.188,6.188,0,0,0,3.75,1.029,5.748,5.748,0,0,0,3.314-.79A2.425,2.425,0,0,0,120.368,42.811Z" fill="#EF463B"/><path d="M133.1,46.749a3.562,3.562,0,0,1,1.228-2.81,4.963,4.963,0,0,1,6.179,0,3.562,3.562,0,0,1,1.228,2.81,3.516,3.516,0,0,1-1.215,2.772,5.046,5.046,0,0,1-6.206,0A3.513,3.513,0,0,1,133.1,46.749Z" fill="#EF463B"/></g></g></svg>