<svg xmlns="http://www.w3.org/2000/svg" viewBox="0 0 156.503 59.421"><title>Asset 1</title><g id="Layer_2" data-name="Layer 2"><g id="Capa_1" data-name="Capa 1"><path d="M6.082,19.446a5.87,5.87,0,0,1-3.118-.85A5.791,5.791,0,0,1,.8,16.228a7.383,7.383,0,0,1-.775-3.406v-.537A7.957,7.957,0,0,1,.777,8.773,6.015,6.015,0,0,1,2.883,6.317a5.2,5.2,0,0,1,2.924-.894A4.882,4.882,0,0,1,9.712,7.1,6.818,6.818,0,0,1,11.156,11.7v.837H1.508v.287a5.662,5.662,0,0,0,1.318,3.83,4.194,4.194,0,0,0,3.318,1.531,4.873,4.873,0,0,0,2.118-.437,4.7,4.7,0,0,0,1.668-1.4l.937.712A5.456,5.456,0,0,1,6.082,19.446ZM6.053,6.705A3.965,3.965,0,0,0,3,7.9,5.692,5.692,0,0,0,1.558,11.26H9.669V11.1A4.962,4.962,0,0,0,8.556,7.923,3.406,3.406,0,0,0,6.053,6.705Z" fill="#fff"/><path d="M22.166,15.759a2.131,2.131,0,0,0-.894-1.787,6.891,6.891,0,0,0-2.693-1.056,12.15,12.15,0,0,1-2.793-.875,3.721,3.721,0,0,1-1.475-1.206,3.009,3.009,0,0,1-.481-1.725,3.217,3.217,0,0,1,1.337-2.643,5.4,5.4,0,0,1,3.424-1.044,5.559,5.559,0,0,1,3.63,1.119A3.59,3.59,0,0,1,23.591,9.46h-1.5A2.422,2.422,0,0,0,21.1,7.486,3.909,3.909,0,0,0,18.592,6.7a3.911,3.911,0,0,0-2.368.656,2.025,2.025,0,0,0-.894,1.706,1.844,1.844,0,0,0,.744,1.568,7.865,7.865,0,0,0,2.712,1.019,12.746,12.746,0,0,1,2.949.987A3.82,3.82,0,0,1,23.191,13.9a3.479,3.479,0,0,1,.452,2.259,2.952,2.952,0,0,1-.779,1.751,5.493,5.493,0,0,1-4.185,1.539,6.057,6.057,0,0,1-3.83-1.144,3.52,3.52,0,0,1-1.468-2.893h1.5a2.6,2.6,0,0,0,1.106,2.043,4.521,4.521,0,0,0,2.693.731A4.25,4.25,0,0,0,21.2,17.5,2.063,2.063,0,0,0,22.166,15.759Z" fill="#fff"/><path d="M29.352,2.212V5.674h2.8V6.9h-2.8v9.021a2.822,2.822,0,0,0,.406,1.676,1.573,1.573,0,0,0,1.356.551,9.3,9.3,0,0,0,1.212-.125l.062,1.214a4.91,4.91,0,0,1-1.6.21,2.667,2.667,0,0,1-2.237-.894,4.206,4.206,0,0,1-.7-2.631V6.9H25.365V5.674h2.487V2.212Z" fill="#fff"/><path d="M43.949,17.484a4.86,4.86,0,0,1-4.312,1.962A4.184,4.184,0,0,1,36.35,18.19a5.5,5.5,0,0,1-1.15-3.718v-8.8h1.487v8.611q0,3.862,3.124,3.862,3.249,0,4.112-2.687V5.674h1.5V19.2h-1.45Z" fill="#fff"/><path d="M48.71,12.31a8.151,8.151,0,0,1,1.406-5.018,4.525,4.525,0,0,1,3.818-1.868,4.7,4.7,0,0,1,4.174,2.162V0H59.6V19.2H58.2l-.062-1.8a4.829,4.829,0,0,1-4.224,2.05,4.509,4.509,0,0,1-3.768-1.881,8.192,8.192,0,0,1-1.431-5.08Zm1.512.262a7.051,7.051,0,0,0,1.037,4.08,3.355,3.355,0,0,0,2.924,1.493,4.025,4.025,0,0,0,3.924-2.437V9.36a4,4,0,0,0-3.9-2.637A3.4,3.4,0,0,0,51.272,8.2,7.535,7.535,0,0,0,50.222,12.572Z" fill="#fff"/><path d="M63.445,1.768a1,1,0,0,1,.275-.714.984.984,0,0,1,.75-.292,1,1,0,0,1,.756.292.992.992,0,0,1,.281.714.971.971,0,0,1-.281.708,1.012,1.012,0,0,1-.756.285.991.991,0,0,1-.75-.285A.982.982,0,0,1,63.445,1.768ZM65.207,19.2h-1.5V5.674h1.5Z" fill="#fff"/><path d="M68.443,12.235A7.957,7.957,0,0,1,69.2,8.723a5.68,5.68,0,0,1,5.268-3.3,5.562,5.562,0,0,1,4.374,1.893,7.3,7.3,0,0,1,1.675,5.018v.312a8.027,8.027,0,0,1-.756,3.53A5.645,5.645,0,0,1,77.629,18.6a5.843,5.843,0,0,1-3.137.85,5.567,5.567,0,0,1-4.368-1.893,7.279,7.279,0,0,1-1.681-5.018Zm1.5.412a6.136,6.136,0,0,0,1.256,3.98,4.25,4.25,0,0,0,6.574,0,6.338,6.338,0,0,0,1.256-4.105v-.287A6.879,6.879,0,0,0,78.454,9.4,4.619,4.619,0,0,0,76.842,7.4a4.085,4.085,0,0,0-2.213-.7,4.226,4.226,0,0,0-3.3,1.419,6.257,6.257,0,0,0-1.385,4.252Z" fill="#fff"/><path d="M7.9,28.894l.262,3.351a11.336,11.336,0,0,1,9.069-3.905q6.094,0,8.369,4.571A11.016,11.016,0,0,1,35.08,28.34q5.132,0,7.64,2.839t2.508,8.546V58.867H36.771V39.709a5.525,5.525,0,0,0-1.05-3.735q-1.05-1.181-3.7-1.18a5.258,5.258,0,0,0-5.249,3.442L26.8,58.867H18.371V39.736a5.464,5.464,0,0,0-1.079-3.776,4.844,4.844,0,0,0-3.674-1.165,5.512,5.512,0,0,0-5.191,2.832V58.867H0V28.894Z" fill="#fff"/><path d="M70.6,55.82a10.819,10.819,0,0,1-8.631,3.6q-5.074,0-7.742-2.77T51.5,48.534V28.894h8.427V48.28q0,4.686,4.491,4.686,4.287,0,5.89-2.829V28.894h8.456V58.867H70.83Z" fill="#fff"/><path d="M102.207,50.585a2.569,2.569,0,0,0-1.531-2.313,18.006,18.006,0,0,0-4.914-1.51q-11.257-2.245-11.256-9.087a8.1,8.1,0,0,1,3.485-6.662A14.564,14.564,0,0,1,97.1,28.34q6.007,0,9.608,2.687a8.328,8.328,0,0,1,3.6,6.981h-8.427a3.774,3.774,0,0,0-1.166-2.839,5.1,5.1,0,0,0-3.645-1.123,5.23,5.23,0,0,0-3.3.914,2.832,2.832,0,0,0-1.166,2.328,2.445,2.445,0,0,0,1.327,2.146,14.129,14.129,0,0,0,4.476,1.413,38.059,38.059,0,0,1,5.307,1.343q6.677,2.326,6.678,8.061a7.718,7.718,0,0,1-3.7,6.635,16.593,16.593,0,0,1-9.565,2.535,17.442,17.442,0,0,1-7.042-1.343,11.711,11.711,0,0,1-4.826-3.685,8.275,8.275,0,0,1-1.75-5.055h7.99a4.1,4.1,0,0,0,1.662,3.268,6.833,6.833,0,0,0,4.141,1.136,6.347,6.347,0,0,0,3.66-.873A2.677,2.677,0,0,0,102.207,50.585Z" fill="#fff"/><path d="M132.913,50.585a2.569,2.569,0,0,0-1.531-2.313,18.006,18.006,0,0,0-4.914-1.51q-11.257-2.245-11.256-9.087a8.1,8.1,0,0,1,3.485-6.662,14.564,14.564,0,0,1,9.113-2.673q6.007,0,9.608,2.687a8.328,8.328,0,0,1,3.6,6.981h-8.427a3.774,3.774,0,0,0-1.166-2.839,5.1,5.1,0,0,0-3.645-1.123,5.23,5.23,0,0,0-3.3.914,2.832,2.832,0,0,0-1.166,2.328,2.445,2.445,0,0,0,1.327,2.146,14.129,14.129,0,0,0,4.476,1.413,38.059,38.059,0,0,1,5.307,1.343q6.677,2.326,6.678,8.061a7.718,7.718,0,0,1-3.7,6.635,16.593,16.593,0,0,1-9.565,2.535,17.442,17.442,0,0,1-7.042-1.343,11.711,11.711,0,0,1-4.826-3.685,8.275,8.275,0,0,1-1.75-5.055h7.99a4.1,4.1,0,0,0,1.662,3.268,6.833,6.833,0,0,0,4.141,1.136,6.347,6.347,0,0,0,3.66-.873A2.677,2.677,0,0,0,132.913,50.585Z" fill="#fff"/><path d="M146.968,54.934a3.933,3.933,0,0,1,1.356-3.1,5.481,5.481,0,0,1,6.824,0,3.933,3.933,0,0,1,1.356,3.1,3.882,3.882,0,0,1-1.341,3.061,5.572,5.572,0,0,1-6.853,0A3.879,3.879,0,0,1,146.968,54.934Z" fill="#fff"/></g></g></svg>